<svg width="85" height="77" viewBox="0 0 85 77" fill="none" xmlns="http://www.w3.org/2000/svg">
<path d="M45.1762 8.89154L45.6287 8.81771L45.4382 8.4007C45.1116 7.68555 44.9271 6.89543 44.9271 6.0651C44.9271 2.93363 47.509 0.35 50.6402 0.35C53.7716 0.35 56.3554 2.93378 56.3554 6.0651C56.3554 6.8901 56.1695 7.67539 55.8458 8.38977L55.657 8.80647L56.1085 8.87971C72.2742 11.5014 84.65 25.5458 84.65 42.4421C84.65 61.2001 69.4003 76.4498 50.6422 76.4498H50.6422H50.6421H50.642H50.642H50.6419H50.6418H50.6418H50.6417H50.6417H50.6416H50.6415H50.6415H50.6414H50.6414H50.6413H50.6412H50.6412H50.6411H50.6411H50.641H50.6409H50.6409H50.6408H50.6408H50.6407C39.3999 76.4366 28.8854 70.8657 22.5623 61.572C22.3149 61.2054 22.2229 60.7558 22.3063 60.3215C22.3898 59.887 22.6421 59.5033 23.0079 59.2546C23.3738 59.0058 23.8233 58.9122 24.258 58.9943C24.6927 59.0763 25.0772 59.3274 25.3272 59.6924C31.0313 68.0761 40.5036 73.0962 50.6438 73.1078H50.6442C67.6034 73.1067 81.3079 59.4015 81.3079 42.4421C81.3079 25.4819 67.6024 11.7764 50.6422 11.7764H50.6421C40.491 11.7784 31.005 16.7996 25.295 25.1926L25.2943 25.1936C25.1712 25.3759 25.0134 25.532 24.8297 25.6532C24.6461 25.7744 24.4404 25.8582 24.2244 25.8997C24.0083 25.9412 23.7862 25.9396 23.5708 25.8951C23.3554 25.8506 23.1509 25.764 22.9689 25.6403C22.787 25.5166 22.6313 25.3582 22.5108 25.1742C22.3902 24.9902 22.3071 24.7843 22.2663 24.5681C22.2255 24.352 22.2278 24.1299 22.273 23.9146C22.3182 23.6993 22.4055 23.4949 22.5297 23.3135L22.5303 23.3126C27.8203 15.5371 36.0479 10.3811 45.1762 8.89154ZM50.656 8.43421L50.6586 8.43419C51.9822 8.42441 53.0133 7.39307 53.0133 6.0651C53.0133 4.73164 51.9737 3.69216 50.6402 3.69216C49.3064 3.69216 48.2691 4.73207 48.2691 6.0651C48.2691 7.39242 49.2976 8.42526 50.622 8.4342H50.6243H50.6244H50.6244H50.6244H50.6245H50.6245H50.6245H50.6246H50.6246H50.6247H50.6247H50.6247H50.6248H50.6248H50.6248H50.6249H50.6249H50.6249H50.625H50.625H50.625H50.6251H50.6251H50.6252H50.6252H50.6252H50.6253H50.6253H50.6253H50.6254H50.6254H50.6254H50.6255H50.6255H50.6255H50.6256H50.6256H50.6257H50.6257H50.6257H50.6258H50.6258H50.6258H50.6259H50.6259H50.6259H50.626H50.626H50.626H50.6261H50.6261H50.6261H50.6262H50.6262H50.6263H50.6263H50.6263H50.6264H50.6264H50.6264H50.6265H50.6265H50.6265H50.6266H50.6266H50.6266H50.6267H50.6267H50.6267H50.6268H50.6268H50.6269H50.6269H50.6269H50.627H50.627H50.627H50.6271H50.6271H50.6271H50.6272H50.6272H50.6272H50.6273H50.6273H50.6273H50.6274H50.6274H50.6275H50.6275H50.6275H50.6276H50.6276H50.6276H50.6277H50.6277H50.6277H50.6278H50.6278H50.6278H50.6279H50.6279H50.6279H50.628H50.628H50.628H50.6281H50.6281H50.6282H50.6282H50.6282H50.6283H50.6283H50.6283H50.6284H50.6284H50.6284H50.6285H50.6285H50.6285H50.6286H50.6286H50.6286H50.6287H50.6287H50.6287H50.6288H50.6288H50.6289H50.6289H50.6289H50.629H50.629H50.629H50.6291H50.6291H50.6291H50.6292H50.6292H50.6292H50.6293H50.6293H50.6293H50.6294H50.6294H50.6294H50.6295H50.6295H50.6296H50.6296H50.6296H50.6297H50.6297H50.6297H50.6298H50.6298H50.6298H50.6299H50.6299H50.6299H50.63H50.63H50.63H50.6301H50.6301H50.6301H50.6302H50.6302H50.6302H50.6303H50.6303H50.6304H50.6304H50.6304H50.6305H50.6305H50.6305H50.6306H50.6306H50.6306H50.6307H50.6307H50.6307H50.6308H50.6308H50.6308H50.6309H50.6309H50.6309H50.631H50.631H50.631H50.6311H50.6311H50.6312H50.6312H50.6312H50.6313H50.6313H50.6313H50.6314H50.6314H50.6314H50.6315H50.6315H50.6315H50.6316H50.6316H50.6316H50.6317H50.6317H50.6317H50.6318H50.6318H50.6318H50.6319H50.6319H50.632H50.632H50.632H50.6321H50.6321H50.6321H50.6322H50.6322H50.6322H50.6323H50.6323H50.6323H50.6324H50.6324H50.6324H50.6325H50.6325H50.6325H50.6326H50.6326H50.6326H50.6327H50.6327H50.6327H50.6328H50.6328H50.6329H50.6329H50.6329H50.633H50.633H50.633H50.6331H50.6331H50.6331H50.6332H50.6332H50.6332H50.6333H50.6333H50.6333H50.6334H50.6334H50.6334H50.6335H50.6335H50.6335H50.6336H50.6336H50.6337H50.6337H50.6337H50.6338H50.6338H50.6338H50.6339H50.6339H50.6339H50.634H50.634H50.634H50.6341H50.6341H50.6341H50.6342H50.6342H50.6342H50.6343H50.6343H50.6343H50.6344H50.6344H50.6344H50.6345H50.6345H50.6346H50.6346H50.6346H50.6347H50.6347H50.6347H50.6348H50.6348H50.6348H50.6349H50.6349H50.6349H50.635H50.635H50.635H50.6351H50.6351H50.6351H50.6352H50.6352H50.6352H50.6353H50.6353H50.6354H50.6354H50.6354H50.6355H50.6355H50.6355H50.6356H50.6356H50.6356H50.6357H50.6357H50.6357H50.6358H50.6358H50.6358H50.6359H50.6359H50.6359H50.636H50.636H50.636H50.6361H50.6361H50.6362H50.6362H50.6362H50.6363H50.6363H50.6363H50.6364H50.6364H50.6364H50.6365H50.6365H50.6365H50.6366H50.6366H50.6366H50.6367H50.6367H50.6367H50.6368H50.6368H50.6368H50.6369H50.6369H50.637H50.637H50.637H50.6371H50.6371H50.6371H50.6372H50.6372H50.6372H50.6373H50.6373H50.6373H50.6374H50.6374H50.6374H50.6375H50.6375H50.6375H50.6376H50.6376H50.6377H50.6377H50.6377H50.6378H50.6378H50.6378H50.6379H50.6379H50.6379H50.638H50.638H50.638H50.6381H50.6381H50.6381H50.6382H50.6382H50.6382H50.6383H50.6383H50.6384H50.6384H50.6384H50.6385H50.6385H50.6385H50.6386H50.6386H50.6386H50.6387H50.6387H50.6387H50.6388H50.6388H50.6388H50.6389H50.6389H50.6389H50.639H50.639H50.6391H50.6391H50.6391H50.6392H50.6392H50.6392H50.6393H50.6393H50.6393H50.6394H50.6394H50.6394H50.6395H50.6395H50.6395H50.6396H50.6396H50.6397H50.6397H50.6397H50.6398H50.6398H50.6398H50.6399H50.6399H50.6399H50.64H50.64H50.64H50.6401H50.6401H50.6401H50.6402H50.6402H50.6403H50.6403H50.6403H50.6404H50.6404H50.6404H50.6405H50.6405H50.6405H50.6406H50.6406H50.6406H50.6407H50.6407H50.6407H50.6408H50.6408H50.6409H50.6409H50.6409H50.641H50.641H50.641H50.6411H50.6411H50.6411H50.6412H50.6412H50.6412H50.6413H50.6413H50.6413H50.6414H50.6414H50.6415H50.6415H50.6415H50.6416H50.6416H50.6416H50.6417H50.6417H50.6417H50.6418H50.6418H50.6418H50.6419H50.6419H50.642H50.642H50.642H50.6421H50.6421H50.6421H50.6422H50.6422H50.6422H50.6423H50.6423H50.6423H50.6424H50.6424H50.6424H50.6424H50.6425H50.6425H50.6425H50.6425H50.6426H50.6426H50.6426H50.6427H50.6427H50.6427H50.6427H50.6428H50.6428H50.6428H50.6428H50.6429H50.6429H50.6429H50.643H50.643H50.643H50.643H50.6431H50.6431H50.6431H50.6431H50.6432H50.6432H50.6432H50.6432H50.6433H50.6433H50.6433H50.6434H50.6434H50.6434H50.6434H50.6435H50.6435H50.6435H50.6435H50.6436H50.6436H50.6436H50.6436H50.6437H50.6437H50.6437H50.6438H50.6438H50.6438H50.6438H50.6439H50.6439H50.6439H50.6439H50.644H50.644H50.644H50.6441H50.6441H50.6441H50.6441H50.6442H50.6442H50.6442H50.6442H50.6443H50.6443H50.6443H50.6443H50.6444H50.6444H50.6444H50.6445H50.6445H50.6445H50.6445H50.6446H50.6446H50.6446H50.6446H50.6447H50.6447H50.6447H50.6447H50.6448H50.6448H50.6448H50.6449H50.6449H50.6449H50.6449H50.645H50.645H50.645H50.645H50.6451H50.6451H50.6451H50.6452H50.6452H50.6452H50.6452H50.6453H50.6453H50.6453H50.6453H50.6454H50.6454H50.6454H50.6454H50.6455H50.6455H50.6455H50.6456H50.6456H50.6456H50.6456H50.6457H50.6457H50.6457H50.6457H50.6458H50.6458H50.6458H50.6459H50.6459H50.6459H50.6459H50.646H50.646H50.646H50.646H50.6461H50.6461H50.6461H50.6461H50.6462H50.6462H50.6462H50.6463H50.6463H50.6463H50.6463H50.6464H50.6464H50.6464H50.6464H50.6465H50.6465H50.6465H50.6465H50.6466H50.6466H50.6466H50.6467H50.6467H50.6467H50.6467H50.6468H50.6468H50.6468H50.6468H50.6469H50.6469H50.6469H50.647H50.647H50.647H50.647H50.6471H50.6471H50.6471H50.6471H50.6472H50.6472H50.6472H50.6472H50.6473H50.6473H50.6473H50.6474H50.6474H50.6474H50.6474H50.6475H50.6475H50.6475H50.6475H50.6476H50.6476H50.6476H50.6476H50.6477H50.6477H50.6477H50.6478H50.6478H50.6478H50.6478H50.6479H50.6479H50.6479H50.6479H50.648H50.648H50.648H50.6481H50.6481H50.6481H50.6481H50.6482H50.6482H50.6482H50.6482H50.6483H50.6483H50.6483H50.6483H50.6484H50.6484H50.6484H50.6485H50.6485H50.6485H50.6485H50.6486H50.6486H50.6486H50.6486H50.6487H50.6487H50.6487H50.6488H50.6488H50.6488H50.6488H50.6489H50.6489H50.6489H50.6489H50.649H50.649H50.649H50.649H50.6491H50.6491H50.6491H50.6492H50.6492H50.6492H50.6492H50.6493H50.6493H50.6493H50.6493H50.6494H50.6494H50.6494H50.6494H50.6495H50.6495H50.6495H50.6496H50.6496H50.6496H50.6496H50.6497H50.6497H50.6497H50.6497H50.6498H50.6498H50.6498H50.6499H50.6499H50.6499H50.6499H50.65H50.65H50.65H50.65H50.6501H50.6501H50.6501H50.6501H50.6502H50.6502H50.6502H50.6503H50.6503H50.6503H50.6503H50.6504H50.6504H50.6504H50.6504H50.6505H50.6505H50.6505H50.6506H50.6506H50.6506H50.6506H50.6507H50.6507H50.6507H50.6507H50.6508H50.6508H50.6508H50.6508H50.6509H50.6509H50.6509H50.651H50.651H50.651H50.651H50.6511H50.6511H50.6511H50.6511H50.6512H50.6512H50.6512H50.6512H50.6513H50.6513H50.6513H50.6514H50.6514H50.6514H50.6514H50.6515H50.6515H50.6515H50.6515H50.6516H50.6516H50.6516H50.6517H50.6517H50.6517H50.6517H50.6518H50.6518H50.6518H50.6518H50.6519H50.6519H50.6519H50.6519H50.652H50.652H50.652H50.6521H50.6521H50.6521H50.6521H50.6522H50.6522H50.6522H50.6522H50.6523H50.6523H50.6523H50.6523H50.6524H50.6524H50.6524H50.6525H50.6525H50.6525H50.6525H50.6526H50.6526H50.6526H50.6526H50.6527H50.6527H50.6527H50.6528H50.6528H50.6528H50.6528H50.6529H50.6529H50.6529H50.6529H50.653H50.653H50.653H50.653H50.6531H50.6531H50.6531H50.6532H50.6532H50.6532H50.6532H50.6533H50.6533H50.6533H50.6533H50.6534H50.6534H50.6534H50.6535H50.6535H50.6535H50.6535H50.6536H50.6536H50.6536H50.6536H50.6537H50.6537H50.6537H50.6537H50.6538H50.6538H50.6538H50.6539H50.6539H50.6539H50.6539H50.654H50.654H50.654H50.654H50.6541H50.6541H50.6541H50.6541H50.6542H50.6542H50.6542H50.6543H50.6543H50.6543H50.6543H50.6544H50.6544H50.6544H50.6544H50.6545H50.6545H50.6545H50.6546H50.6546H50.6546H50.6546H50.6547H50.6547H50.6547H50.6547H50.6548H50.6548H50.6548H50.6548H50.6549H50.6549H50.6549H50.655H50.655H50.655H50.655H50.6551H50.6551H50.6551H50.6551H50.6552H50.6552H50.6552H50.6553H50.6553H50.6553H50.6553H50.6554H50.6554H50.6554H50.6554H50.6555H50.6555H50.6555H50.6555H50.6556H50.6556H50.6556H50.6557H50.6557H50.6557H50.6557H50.6558H50.6558H50.6558H50.6558H50.6559H50.6559H50.6559H50.6559H50.656H50.656L50.656 8.43421Z" fill="#017AE8" stroke="white" stroke-width="0.7"/>
<path d="M2.11865 44.8159L2.12884 44.8165H2.13905H16.2824H16.2926L16.3028 44.8159C16.5302 44.8026 16.7578 44.8358 16.9716 44.9137C17.1856 44.9915 17.3814 45.1123 17.547 45.2685L17.7872 45.0139L17.547 45.2685C17.7126 45.4247 17.8446 45.6132 17.9348 45.8223C18.0249 46.0313 18.0715 46.2566 18.0715 46.4843C18.0715 46.7119 18.0249 46.9372 17.9348 47.1462C17.8446 47.3553 17.7126 47.5437 17.547 47.6999L17.7872 47.9545L17.547 47.6999C17.3814 47.8561 17.1856 47.9769 16.9716 48.0548C16.7577 48.1326 16.5301 48.1659 16.3028 48.1527L16.2926 48.1521H16.2824H2.13905H2.12884L2.11865 48.1527C1.89139 48.1659 1.66379 48.1326 1.44981 48.0548C1.23588 47.9769 1.04008 47.8561 0.874451 47.6999C0.708819 47.5437 0.576879 47.3553 0.486704 47.1462C0.396518 46.9372 0.35 46.7119 0.35 46.4843C0.35 46.2566 0.396518 46.0313 0.486704 45.8223C0.576902 45.6132 0.708862 45.4247 0.874451 45.2685C1.04008 45.1123 1.23588 44.9915 1.44981 44.9137C1.66369 44.8358 1.89129 44.8026 2.11865 44.8159Z" fill="#017AE8" stroke="white" stroke-width="0.7"/>
<path d="M14.2609 36.7304C14.0413 36.7304 13.824 36.7736 13.6212 36.8576C13.4184 36.9416 13.2341 37.0647 13.0789 37.22C12.9237 37.3752 12.8005 37.5594 12.7166 37.7622C12.6326 37.9649 12.5893 38.1824 12.5893 38.4019C12.5893 38.6214 12.6326 38.8388 12.7166 39.0416C12.8006 39.2444 12.9237 39.4287 13.0789 39.5839M14.2609 36.7304L13.0789 39.5839M14.2609 36.7304H30.4332C30.6527 36.7304 30.8701 36.7736 31.0729 36.8576C31.2757 36.9416 31.4599 37.0647 31.6152 37.22C31.7704 37.3752 31.8935 37.5594 31.9775 37.7622C32.0615 37.9649 32.1048 38.1824 32.1048 38.4019C32.1048 38.6214 32.0615 38.8388 31.9775 39.0416C31.8935 39.2444 31.7704 39.4287 31.6152 39.5839C31.46 39.739 31.2757 39.8621 31.0729 39.9461C30.87 40.0302 30.6526 40.0735 30.4332 40.0735H14.2609C14.0414 40.0735 13.8241 40.0302 13.6212 39.9461C13.4183 39.8621 13.2341 39.739 13.0789 39.5839M14.2609 36.7304L13.0789 39.5839" fill="#017AE8" stroke="white" stroke-width="0.7"/>
<path d="M9.03582 53.3849C9.34929 53.0714 9.77446 52.8953 10.2178 52.8953H30.4332C30.8766 52.8953 31.3017 53.0714 31.6152 53.3849C31.9287 53.6984 32.1048 54.1235 32.1048 54.5668C32.1048 55.0102 31.9287 55.4353 31.6152 55.7488C31.3017 56.0623 30.8766 56.2384 30.4332 56.2384H10.2178C9.77446 56.2384 9.34929 56.0623 9.03582 55.7488C8.72234 55.4353 8.54623 55.0102 8.54623 54.5668C8.54623 54.1235 8.72234 53.6984 9.03582 53.3849Z" fill="#017AE8" stroke="white" stroke-width="0.7"/>
<path d="M5.00017 29.1338C5.31365 28.8203 5.73882 28.6442 6.18214 28.6442H26.3901C26.8335 28.6442 27.2586 28.8203 27.5721 29.1338C27.8856 29.4473 28.0617 29.8724 28.0617 30.3157C28.0617 30.7591 27.8856 31.1842 27.5721 31.4977C27.2586 31.8112 26.8335 31.9873 26.3901 31.9873H6.18214C5.73882 31.9873 5.31365 31.8112 5.00017 31.4977C4.68669 31.1842 4.51058 30.7591 4.51058 30.3157C4.51058 29.8724 4.68669 29.4473 5.00017 29.1338Z" fill="#017AE8" stroke="white" stroke-width="0.7"/>
<path d="M50.6164 16.4925L50.6166 16.4925C50.8397 16.4892 51.0613 16.5306 51.2682 16.6142C51.4751 16.6979 51.6631 16.8222 51.8212 16.9797C51.9793 17.1372 52.1043 17.3248 52.1887 17.5313C52.2731 17.7379 52.3153 17.9594 52.3127 18.1825L52.3127 18.1825V18.1865V41.6021V41.747L52.4152 41.8495L63.9477 53.3895L63.9475 53.3896L63.9558 53.3973C64.1191 53.5506 64.25 53.735 64.3406 53.9398C64.4313 54.1446 64.4798 54.3655 64.4834 54.5894C64.487 54.8134 64.4455 55.0357 64.3614 55.2433C64.2774 55.4509 64.1525 55.6395 63.9941 55.7979L64.2416 56.0453L63.9941 55.7979C63.8357 55.9563 63.6471 56.0812 63.4396 56.1652C63.232 56.2493 63.0096 56.2907 62.7857 56.2871C62.5617 56.2836 62.3408 56.2351 62.136 56.1444L61.9944 56.4645L62.136 56.1444C61.9312 56.0538 61.7467 55.9229 61.5935 55.7596L61.5936 55.7595L61.5858 55.7517L49.464 43.6224L49.4631 43.6215C49.1493 43.3098 48.9719 42.8864 48.9696 42.4442V18.1865H48.9697L48.9696 18.1825C48.9646 17.7402 49.1351 17.314 49.4438 16.9972C49.7525 16.6804 50.1742 16.499 50.6164 16.4925Z" fill="#017AE8" stroke="white" stroke-width="0.7"/>
</svg>
