<svg width="42" height="22" viewBox="0 0 42 22" fill="none" xmlns="http://www.w3.org/2000/svg">
<path d="M1.42088 13.1375C3.71297 10.5836 10.3072 7.2228 18.46 4.6807C26.6129 2.1386 33.9892 1.14153 37.3831 1.92157L38.7481 1.49609L41.0524 8.46914C41.8677 10.936 34.0091 15.5195 23.1615 18.9018C12.3138 22.2852 3.17756 23.0029 2.36117 20.535L0.0558014 13.563L1.42088 13.1375Z" fill="#F2A100"/>
<path d="M5.07363 12.6798C5.69201 14.5504 12.6701 13.9465 20.6957 11.4442C28.7225 8.94077 34.758 5.48648 34.1385 3.6159C33.5201 1.74532 26.5122 2.25783 18.4866 4.76125C10.4609 7.26466 4.45525 10.8092 5.07363 12.6798Z" fill="#FFC30D"/>
<path d="M20.8573 11.9298C31.7049 8.54641 39.5635 3.96397 38.7482 1.49601C37.9263 -0.990216 28.5787 -0.306879 17.9125 3.02063C7.2452 6.34706 -0.763855 11.0767 0.0580711 13.5629C0.87225 16.0298 10.0085 15.3121 20.8573 11.9298Z" fill="#FFE600"/>
<path d="M18.1194 3.64805C27.311 0.781475 35.3643 0.192689 36.0723 2.3351C36.7714 4.4485 29.9969 8.38736 20.6493 11.3023C11.3017 14.2172 3.43317 14.8457 2.73404 12.7323C2.02606 10.5899 8.92778 6.51463 18.1194 3.64805Z" fill="#F0A700"/>
<path d="M18.1813 3.83741C27.1461 1.04174 35.0014 0.466924 35.6917 2.55669C36.3731 4.61744 29.7657 8.4596 20.6493 11.3025C11.5329 14.1455 3.85795 14.7579 3.17651 12.6971C2.48623 10.6074 9.21759 6.63307 18.1813 3.83741Z" fill="#FFC000"/>
<mask id="mask0" mask-type="alpha" maskUnits="userSpaceOnUse" x="3" y="2" width="32" height="12">
<path d="M18.0457 4.52712C26.5603 1.90812 34.0211 1.36962 34.6767 3.32733C35.3239 5.25786 29.0483 8.85722 20.3898 11.5205C11.7313 14.1838 4.44175 14.7575 3.79455 12.827C3.13893 10.8693 9.53222 7.14611 18.0457 4.52712Z" fill="#FFC000"/>
</mask>
<g mask="url(#mask0)">
<path d="M34.56 5.56686L36.7913 4.24854L5.92434 6.50698L3.69308 7.82531L34.56 5.56686Z" fill="#FFDD00"/>
<path d="M30.436 9.334L35.674 6.24072L2.349 8.6786L-2.88897 11.7719L30.436 9.334Z" fill="#FFDD00"/>
</g>
</svg>
