<svg width="17" height="14" viewBox="0 0 17 14" fill="none" xmlns="http://www.w3.org/2000/svg">
<path d="M14.7196 8.87619C14.3338 6.55827 12.2185 4.20821 9.19718 3.04958C6.17647 1.8916 3.11449 2.25617 1.39373 3.76627L0.887884 3.57283L0.223216 5.47897C-0.76472 8.31228 1.61008 11.739 5.62998 13.2806C9.64987 14.8221 13.5722 13.8097 14.5602 10.9771L15.2248 9.07094L14.7196 8.87619Z" fill="#F2A100"/>
<path d="M13.1946 9.09681C12.4455 11.2449 9.46357 11.9577 6.48975 10.8174C3.51532 9.67711 1.67576 7.11527 2.42484 4.96717C3.17392 2.81908 6.19212 2.00206 9.16594 3.14234C12.1397 4.28261 13.9437 6.94872 13.1946 9.09681Z" fill="#FFC30D"/>
<path d="M6.2953 11.3746C2.2754 9.83301 -0.100026 6.40628 0.88791 3.57297C1.88335 0.718024 5.90888 -0.371761 9.86187 1.14423C13.8149 2.66023 16.2209 6.21547 15.2249 9.07108C14.2375 11.9037 10.3152 12.9155 6.2953 11.3746Z" fill="#FFE600"/>
<path d="M9.61113 1.86423C6.20525 0.558714 2.73622 1.49703 1.87835 3.95724C1.03235 6.38401 3.08263 9.32551 6.54666 10.6533C10.0107 11.9818 13.3865 11.1208 14.2325 8.69407C15.0898 6.23451 13.017 3.17039 9.61113 1.86423Z" fill="#F0A700"/>
<path d="M9.53544 2.08116C6.21335 0.807778 2.82998 1.72315 1.99399 4.12238C1.16862 6.48948 3.16826 9.35754 6.54662 10.6532C9.92499 11.9489 13.2177 11.1096 14.0431 8.74249C14.879 6.34326 12.8569 3.3552 9.53544 2.08116Z" fill="#FFC000"/>
<mask id="mask0" mask-type="alpha" maskUnits="userSpaceOnUse" x="1" y="1" width="13" height="10">
<path d="M9.26518 2.46918C6.0883 1.35638 2.85283 2.15632 2.05338 4.25298C1.26409 6.32158 3.17632 8.82795 6.40701 9.96023C9.6377 11.0925 12.7865 10.3591 13.5758 8.29046C14.3752 6.19379 12.4415 3.58255 9.26518 2.46918Z" fill="#FFC000"/>
</mask>
<g mask="url(#mask0)">
<path d="M1.74329 7.16351L1.073 6.17274L14.3676 2.57422L15.0379 3.56499L1.74329 7.16351Z" fill="#FFDD00"/>
<path d="M2.6468 10.4377L1.07361 8.1126L15.4262 4.22754L17 6.55268L2.6468 10.4377Z" fill="#FFDD00"/>
</g>
<path d="M13.2096 1.38092L13.5641 0L13.9187 1.38092C14.1188 2.16055 14.6996 2.76971 15.4431 2.97953L16.7605 3.35132L15.4431 3.7231C14.6996 3.93293 14.1188 4.54208 13.9187 5.32172L13.5641 6.70264L13.2096 5.32172C13.0095 4.54208 12.4286 3.93293 11.6852 3.7231L10.3683 3.35132L11.6852 2.97953C12.4286 2.77036 13.0095 2.16121 13.2096 1.38092Z" fill="white"/>
</svg>
