<svg width="26" height="17" viewBox="0 0 26 17" fill="none" xmlns="http://www.w3.org/2000/svg">
<path d="M22.4014 11.3937C21.4524 9.82004 18.3478 7.45177 14.3605 5.39903C10.3721 3.34706 6.64147 2.19652 4.80928 2.3391L4.14242 1.99521L2.29548 5.58511C1.64196 6.8555 5.28721 9.98985 10.5933 12.7214C15.9002 15.4532 20.5689 16.5972 21.2224 15.3268L23.0693 11.7369L22.4014 11.3937Z" fill="#F2A100"/>
<path d="M20.5426 10.8851C20.0464 11.8515 16.4825 10.9444 12.5521 8.91805C8.6216 6.89175 5.81416 4.51225 6.31016 3.54683C6.80632 2.5805 10.394 3.44076 14.3244 5.46706C18.2549 7.49337 21.0388 9.9188 20.5426 10.8851Z" fill="#FFC30D"/>
<path d="M12.4173 9.18342C7.11352 6.44652 3.47429 3.29959 4.13085 2.02023C4.79184 0.731211 9.57279 1.87196 14.7878 4.56373C20.0027 7.25551 23.707 10.4946 23.0451 11.7835C22.3893 13.0639 17.72 11.9211 12.4173 9.18342Z" fill="#FFE600"/>
<path d="M14.6171 4.89763C10.1162 2.57763 5.99333 1.5887 5.4251 2.69543C4.86417 3.78645 8.01102 6.49027 12.5879 8.85055C17.1647 11.2108 21.1891 12.2046 21.7491 11.1135C22.3173 10.0067 19.1178 7.21855 14.6171 4.89763Z" fill="#F0A700"/>
<path d="M14.5674 4.99479C10.1776 2.73087 6.15625 1.76751 5.602 2.84651C5.05581 3.91086 8.12389 6.54782 12.5882 8.8499C17.0525 11.152 20.977 12.1214 21.5232 11.0571C22.0774 9.97808 18.9572 7.2587 14.5674 4.99479Z" fill="#FFC000"/>
<mask id="mask0" mask-type="alpha" maskUnits="userSpaceOnUse" x="5" y="2" width="17" height="9">
<path d="M14.6417 4.97291C10.3645 2.85482 6.45973 1.9291 5.93623 2.90859C5.42035 3.87479 8.42251 6.3187 12.7723 8.4725C17.1222 10.6263 20.9332 11.5565 21.4491 10.5903C21.9726 9.61079 18.9189 7.091 14.6417 4.97291Z" fill="#FFC000"/>
</mask>
<g mask="url(#mask0)">
<path d="M5.87853 4.56136L4.84012 3.64502L20.6878 7.50114L21.7262 8.41748L5.87853 4.56136Z" fill="#FFDD00"/>
<path d="M7.69105 6.95215L5.25616 4.80713L22.3579 8.95229L24.7919 11.0972L7.69105 6.95215Z" fill="#FFDD00"/>
</g>
<path d="M20.596 6.79661L21.2306 5.40795L21.3714 6.92206C21.4515 7.7766 21.9775 8.51975 22.7538 8.87243L24.1281 9.49608L22.621 9.65359C21.7695 9.74292 21.0259 10.2798 20.6671 11.0642L20.0325 12.4529L19.8916 10.9388C19.8116 10.0842 19.2856 9.34109 18.5093 8.98841L17.135 8.36476L18.6421 8.20725C19.4936 8.11792 20.2374 7.58017 20.596 6.79661Z" fill="white"/>
</svg>
