<svg width="35" height="35" viewBox="0 0 35 35" fill="none" xmlns="http://www.w3.org/2000/svg">
<path d="M17.0161 1.85188H17.0159C14.0168 1.85188 11.085 2.74124 8.59124 4.40749C6.09752 6.07373 4.15391 8.44204 3.00618 11.2129C1.85845 13.9838 1.55815 17.0328 2.14326 19.9743C2.72836 22.9158 4.1726 25.6178 6.29333 27.7385C8.41406 29.8593 11.116 31.3035 14.0576 31.8886C16.9991 32.4737 20.0481 32.1734 22.819 31.0257C25.5898 29.878 27.9581 27.9344 29.6244 25.4406C31.2906 22.9469 32.18 20.0151 32.18 17.0159V17.0158C32.1757 12.9954 30.5767 9.14087 27.7339 6.29801C24.891 3.45516 21.0365 1.85616 17.0161 1.85188ZM17.0158 33.8819C13.6801 33.8818 10.4193 32.8927 7.64573 31.0394C4.87214 29.1862 2.71039 26.5521 1.43385 23.4703C0.157308 20.3884 -0.176694 16.9972 0.474082 13.7256C1.12486 10.4539 2.73118 7.44867 5.08992 5.08992C7.44867 2.73118 10.4539 1.12486 13.7256 0.474082C16.9972 -0.176694 20.3884 0.157308 23.4703 1.43385C26.5521 2.71039 29.1862 4.87214 31.0394 7.64573C32.8927 10.4193 33.8818 13.6801 33.8819 17.0158C33.8766 21.4873 32.098 25.7742 28.9361 28.9361C25.7742 32.098 21.4873 33.8766 17.0158 33.8819Z" fill="#017AE8" stroke="white" stroke-width="0.3"/>
<path d="M12.5659 13.813C12.5659 14.8645 11.7135 15.7169 10.662 15.7169C9.61049 15.7169 8.75808 14.8645 8.75808 13.813C8.75808 12.7614 9.61049 11.909 10.662 11.909C11.7135 11.909 12.5659 12.7614 12.5659 13.813Z" fill="#017AE8" stroke="white" stroke-width="0.3"/>
<path d="M25.2778 13.813C25.2778 14.8645 24.4254 15.7169 23.3739 15.7169C22.3224 15.7169 21.47 14.8645 21.47 13.813C21.47 12.7614 22.3224 11.909 23.3739 11.909C24.4254 11.909 25.2778 12.7614 25.2778 13.813Z" fill="#017AE8" stroke="white" stroke-width="0.3"/>
<path d="M23.9288 24.7809L23.929 24.7811C24.1005 24.9278 24.2068 25.1366 24.2243 25.3617C24.2419 25.5867 24.1693 25.8094 24.0226 25.981C23.8759 26.1525 23.6671 26.2587 23.4421 26.2763C23.2171 26.2938 22.9943 26.2213 22.8228 26.0746C20.6412 24.2041 18.4414 23.3284 16.2796 23.4966L16.2796 23.4966L16.2758 23.497C14.3735 23.6941 12.6066 24.5725 11.3011 25.9701L11.301 25.9699L11.2963 25.9755C11.2175 26.0684 11.1196 26.1433 11.0092 26.1949C10.8991 26.2465 10.7791 26.2737 10.6575 26.2748C10.4954 26.2744 10.3368 26.2277 10.2003 26.1402C10.0636 26.0525 9.95489 25.9276 9.8869 25.7802C9.81891 25.6328 9.79452 25.469 9.8166 25.3081C9.83856 25.1481 9.90557 24.9978 10.0098 24.8745C11.6085 23.1316 13.7917 22.0366 16.1447 21.7977C18.7486 21.59 21.3685 22.5819 23.9288 24.7809Z" fill="#017AE8" stroke="white" stroke-width="0.3"/>
</svg>
