<svg width="35" height="29" viewBox="0 0 35 29" fill="none" xmlns="http://www.w3.org/2000/svg">
<path d="M33.9992 28.6962H1.57239C1.25598 28.6962 1 28.4427 1 28.1284V1.56777C1 1.25346 1.25598 1 1.57239 1H33.9992C34.3151 1 34.5711 1.25346 34.5711 1.56777V28.1288C34.5711 28.4427 34.3151 28.6962 33.9992 28.6962ZM2.14436 27.5606H33.4263V2.13554H2.14436V27.5606Z" fill="#017AE8" stroke="#017AE8" stroke-width="0.1"/>
<path d="M10.4419 12.0093H4.14728C3.83087 12.0093 3.57489 11.7558 3.57489 11.4415C3.57489 11.1272 3.83087 10.8733 4.14728 10.8733H10.4419C10.7583 10.8733 11.0143 11.1272 11.0143 11.4415C11.0143 11.7558 10.7583 12.0093 10.4419 12.0093Z" fill="#017AE8" stroke="#017AE8" stroke-width="0.1"/>
<path d="M30.0315 17.1188H4.14728C3.83087 17.1188 3.57489 16.8653 3.57489 16.551C3.57489 16.2367 3.83087 15.9832 4.14728 15.9832H30.0315C30.3479 15.9832 30.6034 16.2367 30.6034 16.551C30.6034 16.8653 30.3479 17.1188 30.0315 17.1188Z" fill="#017AE8" stroke="#017AE8" stroke-width="0.1"/>
<path d="M30.0315 20.5258H4.14728C3.83087 20.5258 3.57489 20.2715 3.57489 19.9576C3.57489 19.6437 3.83087 19.3894 4.14728 19.3894H30.0315C30.3479 19.3894 30.6034 19.6433 30.6034 19.9576C30.6034 20.2715 30.3479 20.5258 30.0315 20.5258Z" fill="#017AE8" stroke="#017AE8" stroke-width="0.1"/>
</svg>
