<svg width="29" height="37" viewBox="0 0 29 37" fill="none" xmlns="http://www.w3.org/2000/svg">
<path d="M14.308 36.0683C14.2379 36.0683 14.1682 36.0569 14.1008 36.0336C-4.74043 29.5087 0.72105 6.66254 0.778438 6.43253C0.845619 6.16335 1.08018 5.96932 1.35711 5.95384C9.17812 5.51591 13.7831 0.27214 13.8286 0.219306C13.9487 0.0799341 14.1236 0.000227695 14.3076 0C14.3076 0 14.308 0 14.3085 0C14.492 0 14.6665 0.0799341 14.7867 0.218623C14.8327 0.271685 19.4616 5.51727 27.2592 5.95384C27.5361 5.96932 27.7707 6.16335 27.8376 6.43253C27.895 6.66254 33.3565 29.5087 14.5153 36.0336C14.4479 36.0569 14.3782 36.0683 14.308 36.0683ZM1.90822 7.18473C1.61148 8.62423 0.790508 13.3513 1.53975 18.5534C2.71462 26.7112 7.01011 32.164 14.308 34.7647C21.6059 32.164 25.9014 26.7112 27.0765 18.5534C27.8258 13.3513 27.0046 8.62423 26.7076 7.18473C20.0214 6.64956 15.6972 2.93046 14.308 1.55109C12.9189 2.93046 8.59467 6.64956 1.90822 7.18473Z" fill="#017AE8"/>
<path d="M13.3315 23.5708C13.1019 23.5708 12.8838 23.4711 12.7335 23.2975L8.43684 18.3345C8.15104 18.0043 8.18679 17.5049 8.51723 17.2189C8.84744 16.9324 9.34732 16.9691 9.63289 17.2993L13.3315 21.5713L20.0378 13.8252C20.3233 13.4948 20.823 13.4586 21.1536 13.7448C21.4839 14.0309 21.5198 14.5303 21.2338 14.8605L13.9295 23.2975C13.7792 23.4711 13.561 23.5708 13.3315 23.5708Z" fill="#017AE8"/>
</svg>
