<svg width="34" height="33" viewBox="0 0 34 33" fill="none" xmlns="http://www.w3.org/2000/svg">
<path d="M16.8441 3.71174L16.7148 3.69064L16.7692 3.5715C16.91 3.26318 16.9896 2.92237 16.9896 2.56415C16.9896 1.21378 15.8766 0.1 14.5263 0.1C13.176 0.1 12.0622 1.21382 12.0622 2.56415C12.0622 2.92023 12.1424 3.25895 12.2819 3.56675L12.3358 3.6858L12.2068 3.70673C5.3496 4.81882 0.0999985 10.7761 0.0999985 17.9433C0.0999985 25.9001 6.56862 32.3687 14.5255 32.3687H14.5255H14.5255H14.5256H14.5256H14.5256H14.5257H14.5257H14.5257H14.5257H14.5258H14.5258H14.5258H14.5259H14.5259H14.5259H14.5259H14.526H14.526H14.526H14.5261H14.5261H14.5261H14.5262H14.5262C19.2943 32.3631 23.7544 30 26.4365 26.0578C26.5482 25.8923 26.5898 25.6892 26.5522 25.4931C26.5145 25.297 26.4006 25.1237 26.2354 25.0114C26.0702 24.8991 25.8673 24.8569 25.671 24.8939C25.4748 24.9309 25.3012 25.0443 25.1884 25.209C22.7858 28.7404 18.796 30.855 14.5247 30.8599H14.5246C7.38127 30.8594 1.60888 25.0867 1.60888 17.9433C1.60888 10.7995 7.38171 5.02667 14.5255 5.02667H14.5255C18.8012 5.02751 22.7968 7.1425 25.2019 10.6777L25.2021 10.678C25.2576 10.7603 25.3289 10.8308 25.4118 10.8855C25.4947 10.9402 25.5876 10.978 25.6851 10.9967C25.7826 11.0155 25.8829 11.0148 25.9802 10.9947C26.0774 10.9746 26.1698 10.9355 26.2519 10.8796C26.334 10.8238 26.4043 10.7523 26.4587 10.6692C26.5132 10.5861 26.5507 10.4932 26.5691 10.3956C26.5875 10.298 26.5865 10.1977 26.5661 10.1005C26.5457 10.0033 26.5063 9.91108 26.4502 9.82915L26.45 9.82889C24.2061 6.53063 20.7161 4.34357 16.8441 3.71174ZM14.5196 3.51777L14.5189 3.51776C13.9856 3.51382 13.571 3.09909 13.571 2.56415C13.571 2.0269 13.9891 1.60891 14.5263 1.60891C15.0637 1.60891 15.4808 2.02702 15.4808 2.56415C15.4808 3.0989 15.0673 3.51416 14.5337 3.51776H14.533H14.533H14.533H14.533H14.533H14.533H14.5329H14.5329H14.5329H14.5329H14.5329H14.5329H14.5328H14.5328H14.5328H14.5328H14.5328H14.5328H14.5328H14.5327H14.5327H14.5327H14.5327H14.5327H14.5327H14.5327H14.5326H14.5326H14.5326H14.5326H14.5326H14.5326H14.5325H14.5325H14.5325H14.5325H14.5325H14.5325H14.5325H14.5324H14.5324H14.5324H14.5324H14.5324H14.5324H14.5324H14.5323H14.5323H14.5323H14.5323H14.5323H14.5323H14.5322H14.5322H14.5322H14.5322H14.5322H14.5322H14.5322H14.5321H14.5321H14.5321H14.5321H14.5321H14.5321H14.5321H14.532H14.532H14.532H14.532H14.532H14.532H14.5319H14.5319H14.5319H14.5319H14.5319H14.5319H14.5319H14.5318H14.5318H14.5318H14.5318H14.5318H14.5318H14.5318H14.5317H14.5317H14.5317H14.5317H14.5317H14.5317H14.5317H14.5316H14.5316H14.5316H14.5316H14.5316H14.5316H14.5315H14.5315H14.5315H14.5315H14.5315H14.5315H14.5315H14.5314H14.5314H14.5314H14.5314H14.5314H14.5314H14.5314H14.5313H14.5313H14.5313H14.5313H14.5313H14.5313H14.5313H14.5312H14.5312H14.5312H14.5312H14.5312H14.5312H14.5311H14.5311H14.5311H14.5311H14.5311H14.5311H14.5311H14.531H14.531H14.531H14.531H14.531H14.531H14.531H14.5309H14.5309H14.5309H14.5309H14.5309H14.5309H14.5309H14.5308H14.5308H14.5308H14.5308H14.5308H14.5308H14.5307H14.5307H14.5307H14.5307H14.5307H14.5307H14.5307H14.5306H14.5306H14.5306H14.5306H14.5306H14.5306H14.5306H14.5305H14.5305H14.5305H14.5305H14.5305H14.5305H14.5305H14.5304H14.5304H14.5304H14.5304H14.5304H14.5304H14.5304H14.5303H14.5303H14.5303H14.5303H14.5303H14.5303H14.5302H14.5302H14.5302H14.5302H14.5302H14.5302H14.5302H14.5301H14.5301H14.5301H14.5301H14.5301H14.5301H14.5301H14.53H14.53H14.53H14.53H14.53H14.53H14.53H14.5299H14.5299H14.5299H14.5299H14.5299H14.5299H14.5299H14.5298H14.5298H14.5298H14.5298H14.5298H14.5298H14.5297H14.5297H14.5297H14.5297H14.5297H14.5297H14.5297H14.5296H14.5296H14.5296H14.5296H14.5296H14.5296H14.5296H14.5295H14.5295H14.5295H14.5295H14.5295H14.5295H14.5295H14.5294H14.5294H14.5294H14.5294H14.5294H14.5294H14.5294H14.5293H14.5293H14.5293H14.5293H14.5293H14.5293H14.5293H14.5292H14.5292H14.5292H14.5292H14.5292H14.5292H14.5291H14.5291H14.5291H14.5291H14.5291H14.5291H14.5291H14.529H14.529H14.529H14.529H14.529H14.529H14.529H14.5289H14.5289H14.5289H14.5289H14.5289H14.5289H14.5289H14.5288H14.5288H14.5288H14.5288H14.5288H14.5288H14.5288H14.5287H14.5287H14.5287H14.5287H14.5287H14.5287H14.5287H14.5286H14.5286H14.5286H14.5286H14.5286H14.5286H14.5285H14.5285H14.5285H14.5285H14.5285H14.5285H14.5285H14.5284H14.5284H14.5284H14.5284H14.5284H14.5284H14.5284H14.5283H14.5283H14.5283H14.5283H14.5283H14.5283H14.5283H14.5282H14.5282H14.5282H14.5282H14.5282H14.5282H14.5282H14.5281H14.5281H14.5281H14.5281H14.5281H14.5281H14.528H14.528H14.528H14.528H14.528H14.528H14.528H14.5279H14.5279H14.5279H14.5279H14.5279H14.5279H14.5279H14.5278H14.5278H14.5278H14.5278H14.5278H14.5278H14.5278H14.5277H14.5277H14.5277H14.5277H14.5277H14.5277H14.5277H14.5276H14.5276H14.5276H14.5276H14.5276H14.5276H14.5275H14.5275H14.5275H14.5275H14.5275H14.5275H14.5275H14.5274H14.5274H14.5274H14.5274H14.5274H14.5274H14.5274H14.5273H14.5273H14.5273H14.5273H14.5273H14.5273H14.5273H14.5272H14.5272H14.5272H14.5272H14.5272H14.5272H14.5271H14.5271H14.5271H14.5271H14.5271H14.5271H14.5271H14.527H14.527H14.527H14.527H14.527H14.527H14.527H14.5269H14.5269H14.5269H14.5269H14.5269H14.5269H14.5269H14.5268H14.5268H14.5268H14.5268H14.5268H14.5268H14.5267H14.5267H14.5267H14.5267H14.5267H14.5267H14.5267H14.5266H14.5266H14.5266H14.5266H14.5266H14.5266H14.5266H14.5265H14.5265H14.5265H14.5265H14.5265H14.5265H14.5264H14.5264H14.5264H14.5264H14.5264H14.5264H14.5264H14.5263H14.5263H14.5263H14.5263H14.5263H14.5263H14.5263H14.5262H14.5262H14.5262H14.5262H14.5262H14.5262H14.5262H14.5261H14.5261H14.5261H14.5261H14.5261H14.5261H14.526H14.526H14.526H14.526H14.526H14.526H14.526H14.5259H14.5259H14.5259H14.5259H14.5259H14.5259H14.5259H14.5258H14.5258H14.5258H14.5258H14.5258H14.5258H14.5257H14.5257H14.5257H14.5257H14.5257H14.5257H14.5257H14.5256H14.5256H14.5256H14.5256H14.5256H14.5256H14.5255H14.5255H14.5255H14.5255H14.5255H14.5255H14.5255H14.5254H14.5254H14.5254H14.5254H14.5254H14.5254H14.5254H14.5254H14.5254H14.5253H14.5253H14.5253H14.5253H14.5253H14.5253H14.5253H14.5253H14.5253H14.5252H14.5252H14.5252H14.5252H14.5252H14.5252H14.5252H14.5252H14.5251H14.5251H14.5251H14.5251H14.5251H14.5251H14.5251H14.5251H14.5251H14.525H14.525H14.525H14.525H14.525H14.525H14.525H14.525H14.525H14.5249H14.5249H14.5249H14.5249H14.5249H14.5249H14.5249H14.5249H14.5249H14.5248H14.5248H14.5248H14.5248H14.5248H14.5248H14.5248H14.5248H14.5248H14.5247H14.5247H14.5247H14.5247H14.5247H14.5247H14.5247H14.5247H14.5246H14.5246H14.5246H14.5246H14.5246H14.5246H14.5246H14.5246H14.5246H14.5245H14.5245H14.5245H14.5245H14.5245H14.5245H14.5245H14.5245H14.5245H14.5244H14.5244H14.5244H14.5244H14.5244H14.5244H14.5244H14.5244H14.5244H14.5243H14.5243H14.5243H14.5243H14.5243H14.5243H14.5243H14.5243H14.5243H14.5242H14.5242H14.5242H14.5242H14.5242H14.5242H14.5242H14.5242H14.5241H14.5241H14.5241H14.5241H14.5241H14.5241H14.5241H14.5241H14.5241H14.524H14.524H14.524H14.524H14.524H14.524H14.524H14.524H14.524H14.5239H14.5239H14.5239H14.5239H14.5239H14.5239H14.5239H14.5239H14.5239H14.5238H14.5238H14.5238H14.5238H14.5238H14.5238H14.5238H14.5238H14.5238H14.5237H14.5237H14.5237H14.5237H14.5237H14.5237H14.5237H14.5237H14.5236H14.5236H14.5236H14.5236H14.5236H14.5236H14.5236H14.5236H14.5236H14.5235H14.5235H14.5235H14.5235H14.5235H14.5235H14.5235H14.5235H14.5235H14.5234H14.5234H14.5234H14.5234H14.5234H14.5234H14.5234H14.5234H14.5234H14.5233H14.5233H14.5233H14.5233H14.5233H14.5233H14.5233H14.5233H14.5233H14.5232H14.5232H14.5232H14.5232H14.5232H14.5232H14.5232H14.5232H14.5231H14.5231H14.5231H14.5231H14.5231H14.5231H14.5231H14.5231H14.5231H14.523H14.523H14.523H14.523H14.523H14.523H14.523H14.523H14.523H14.5229H14.5229H14.5229H14.5229H14.5229H14.5229H14.5229H14.5229H14.5229H14.5228H14.5228H14.5228H14.5228H14.5228H14.5228H14.5228H14.5228H14.5228H14.5227H14.5227H14.5227H14.5227H14.5227H14.5227H14.5227H14.5227H14.5226H14.5226H14.5226H14.5226H14.5226H14.5226H14.5226H14.5226H14.5226H14.5225H14.5225H14.5225H14.5225H14.5225H14.5225H14.5225H14.5225H14.5225H14.5224H14.5224H14.5224H14.5224H14.5224H14.5224H14.5224H14.5224H14.5224H14.5223H14.5223H14.5223H14.5223H14.5223H14.5223H14.5223H14.5223H14.5223H14.5222H14.5222H14.5222H14.5222H14.5222H14.5222H14.5222H14.5222H14.5222H14.5221H14.5221H14.5221H14.5221H14.5221H14.5221H14.5221H14.5221H14.522H14.522H14.522H14.522H14.522H14.522H14.522H14.522H14.522H14.5219H14.5219H14.5219H14.5219H14.5219H14.5219H14.5219H14.5219H14.5219H14.5218H14.5218H14.5218H14.5218H14.5218H14.5218H14.5218H14.5218H14.5218H14.5217H14.5217H14.5217H14.5217H14.5217H14.5217H14.5217H14.5217H14.5217H14.5216H14.5216H14.5216H14.5216H14.5216H14.5216H14.5216H14.5216H14.5215H14.5215H14.5215H14.5215H14.5215H14.5215H14.5215H14.5215H14.5215H14.5214H14.5214H14.5214H14.5214H14.5214H14.5214H14.5214H14.5214H14.5214H14.5213H14.5213H14.5213H14.5213H14.5213H14.5213H14.5213H14.5213H14.5213H14.5212H14.5212H14.5212H14.5212H14.5212H14.5212H14.5212H14.5212H14.5212H14.5211H14.5211H14.5211H14.5211H14.5211H14.5211H14.5211H14.5211H14.521H14.521H14.521H14.521H14.521H14.521H14.521H14.521H14.521H14.5209H14.5209H14.5209H14.5209H14.5209H14.5209H14.5209H14.5209H14.5209H14.5208H14.5208H14.5208H14.5208H14.5208H14.5208H14.5208H14.5208H14.5208H14.5207H14.5207H14.5207H14.5207H14.5207H14.5207H14.5207H14.5207H14.5207H14.5206H14.5206H14.5206H14.5206H14.5206H14.5206H14.5206H14.5206H14.5205H14.5205H14.5205H14.5205H14.5205H14.5205H14.5205H14.5205H14.5205H14.5204H14.5204H14.5204H14.5204H14.5204H14.5204H14.5204H14.5204H14.5204H14.5203H14.5203H14.5203H14.5203H14.5203H14.5203H14.5203H14.5203H14.5203H14.5202H14.5202H14.5202H14.5202H14.5202H14.5202H14.5202H14.5202H14.5202H14.5201H14.5201H14.5201H14.5201H14.5201H14.5201H14.5201H14.5201H14.52H14.52H14.52H14.52H14.52H14.52H14.52H14.52H14.52H14.5199H14.5199H14.5199H14.5199H14.5199H14.5199H14.5199H14.5199H14.5199H14.5198H14.5198H14.5198H14.5198H14.5198H14.5198H14.5198H14.5198H14.5198H14.5197H14.5197H14.5197H14.5197H14.5197H14.5197H14.5197H14.5197H14.5197H14.5196L14.5196 3.51777Z" fill="#017AE8" stroke="white" stroke-width="0.2"/>
<path d="M14.537 6.92455L14.5371 6.92455C14.7367 6.92745 14.9271 7.00939 15.0665 7.15241C15.2058 7.29543 15.2828 7.48786 15.2806 7.68754L15.2806 7.68867H15.2806V17.9442C15.2796 18.1439 15.1995 18.3351 15.0578 18.4759L15.0575 18.4761L9.93279 23.604L9.93055 23.6063L9.93059 23.6063C9.86142 23.68 9.77812 23.7391 9.68565 23.78C9.5932 23.821 9.49345 23.8429 9.39234 23.8445C9.29123 23.8461 9.19084 23.8274 9.09713 23.7894C9.00342 23.7515 8.91827 23.6951 8.84677 23.6236C8.77527 23.5521 8.71887 23.4669 8.68093 23.3732C8.64298 23.2795 8.62426 23.1791 8.62587 23.078C8.62749 22.9769 8.6494 22.8772 8.69033 22.7847C8.73124 22.6923 8.79033 22.609 8.86408 22.5398L8.86643 22.5376L8.86639 22.5375L13.742 17.6588L13.7713 17.6295V17.5881V7.68867V7.68754L13.7713 7.68754C13.7701 7.58678 13.7892 7.4868 13.8273 7.39354M14.537 6.92455L13.8273 7.39354M14.537 6.92455C14.4363 6.92304 14.3363 6.94173 14.2429 6.9795C14.1494 7.01728 14.0645 7.07337 13.9932 7.14449C13.9218 7.21561 13.8654 7.30028 13.8273 7.39354M14.537 6.92455L13.8273 7.39354M15.1283 18.5468L10.0035 23.6747C9.92517 23.7582 9.83084 23.8251 9.72612 23.8715C9.6214 23.9178 9.50844 23.9426 9.39394 23.9445C9.27944 23.9463 9.16574 23.9251 9.0596 23.8821C8.95346 23.8392 8.85703 23.7753 8.77606 23.6943C8.69509 23.6133 8.63121 23.5169 8.58824 23.4107C8.54526 23.3046 8.52406 23.1909 8.52588 23.0764C8.52771 22.9619 8.55254 22.849 8.59888 22.7442C8.64522 22.6395 8.71214 22.5452 8.79566 22.4669L13.6713 17.5881V7.68867L15.1283 18.5468Z" fill="#017AE8" stroke="white" stroke-width="0.2"/>
<path d="M24.7436 15.6846L22.3408 21.1385H21.288L23.6867 15.9323H20.5779V15.1273H24.7436V15.6846Z" fill="#017AE8"/>
<path d="M29.5906 21.1385H25.5487V20.449L27.5511 18.265C27.8401 17.943 28.0452 17.6746 28.1663 17.4599C28.2901 17.2425 28.3521 17.025 28.3521 16.8076C28.3521 16.5213 28.2709 16.2901 28.1085 16.114C27.9488 15.9378 27.7328 15.8498 27.4603 15.8498C27.1355 15.8498 26.8836 15.9488 26.7047 16.147C26.5258 16.3452 26.4364 16.6163 26.4364 16.9604H25.4331C25.4331 16.5943 25.5157 16.2654 25.6808 15.9736C25.8487 15.6791 26.0868 15.4507 26.3951 15.2883C26.7061 15.1259 27.0639 15.0447 27.4685 15.0447C28.052 15.0447 28.5117 15.1919 28.8475 15.4864C29.186 15.7782 29.3553 16.1828 29.3553 16.7003C29.3553 17.0003 29.27 17.3154 29.0993 17.6457C28.9314 17.9732 28.6548 18.3462 28.2695 18.7646L26.7997 20.3376H29.5906V21.1385Z" fill="#017AE8"/>
<path d="M34 21.1385H32.9968V19.6481C32.738 19.7086 32.4655 19.7389 32.1793 19.7389C31.5682 19.7389 31.1017 19.593 30.7797 19.3013C30.4577 19.0068 30.2966 18.5857 30.2966 18.0379V16.6672H31.2999V18.0379C31.2999 18.3627 31.3715 18.5925 31.5146 18.7274C31.6605 18.8623 31.882 18.9297 32.1793 18.9297C32.449 18.9297 32.7215 18.8981 32.9968 18.8348V16.6714H34V21.1385Z" fill="#017AE8"/>
</svg>
